<?xml version="1.0" encoding="UTF-8" standalone="no"?><svg xmlns="http://www.w3.org/2000/svg" xmlns:xlink="http://www.w3.org/1999/xlink" contentScriptType="application/ecmascript" contentStyleType="text/css" height="817px" preserveAspectRatio="none" style="width:670px;height:817px;" version="1.1" viewBox="0 0 670 817" width="670px" zoomAndPan="magnify"><defs><filter height="300%" id="f1x9vve8d7skbg" width="300%" x="-1" y="-1"><feGaussianBlur result="blurOut" stdDeviation="2.0"/><feColorMatrix in="blurOut" result="blurOut2" type="matrix" values="0 0 0 0 0 0 0 0 0 0 0 0 0 0 0 0 0 0 .4 0"/><feOffset dx="4.0" dy="4.0" in="blurOut2" result="blurOut3"/><feBlend in="SourceGraphic" in2="blurOut3" mode="normal"/></filter></defs><g><!--class playlist_songs--><rect fill="#FEFECE" filter="url(#f1x9vve8d7skbg)" height="69.9727" id="playlist_songs" style="stroke: #A80036; stroke-width: 1.5;" width="163" x="191" y="8"/><ellipse cx="220.85" cy="24" fill="#ADD1B2" rx="11" ry="11" style="stroke: #A80036; stroke-width: 1.0;"/><path d="M223.1938,19.6719 L223.3656,19.75 C223.5844,19.4375 223.7875,19.3438 224.0844,19.3438 C224.3813,19.3438 224.6625,19.4844 224.8188,19.75 C224.9125,19.9063 224.9281,20.0313 224.9281,20.4688 L224.9281,21.8906 C224.9281,22.3125 224.8969,22.5 224.7875,22.6563 C224.6156,22.875 224.35,23.0156 224.0844,23.0156 C223.8656,23.0156 223.6313,22.9063 223.4906,22.7656 C223.35,22.6406 223.3188,22.5156 223.2563,22.1094 C223.1625,21.7031 222.9906,21.4844 222.5063,21.2031 C222.0375,20.9531 221.4281,20.7969 220.85,20.7969 C219.1156,20.7969 217.8656,22.1094 217.8656,23.8906 L217.8656,24.9844 C217.8656,26.6875 219.1625,27.7813 221.2094,27.7813 C221.975,27.7813 222.6625,27.6563 223.0844,27.3906 C223.2719,27.2969 223.2719,27.2969 223.725,26.8125 C223.9125,26.625 224.1156,26.5469 224.3344,26.5469 C224.8031,26.5469 225.1938,26.9375 225.1938,27.3906 C225.1938,27.7813 224.8656,28.2344 224.2875,28.6406 C223.5375,29.1875 222.3813,29.4844 221.1625,29.4844 C218.2719,29.4844 216.1625,27.5938 216.1625,25.0156 L216.1625,23.8906 C216.1625,21.1719 218.1625,19.0938 220.7875,19.0938 C221.6625,19.0938 222.2563,19.2344 223.1938,19.6719 Z "/><text fill="#000000" font-family="Courier" font-size="12" lengthAdjust="spacingAndGlyphs" textLength="98" x="238.15" y="29.2711">playlist_songs</text><line style="stroke: #A80036; stroke-width: 1.5;" x1="192" x2="353" y1="40" y2="40"/><text fill="#000000" font-family="Courier" font-size="11" lengthAdjust="spacingAndGlyphs" textLength="151" x="197" y="54.3217">INTEGER ☆ playlist_id</text><text fill="#000000" font-family="Courier" font-size="11" lengthAdjust="spacingAndGlyphs" textLength="123" x="197" y="65.308">INTEGER ☆ song_id</text><line style="stroke: #A80036; stroke-width: 1.5;" x1="192" x2="353" y1="69.9727" y2="69.9727"/><!--class preformers--><rect fill="#FEFECE" filter="url(#f1x9vve8d7skbg)" height="69.9727" id="preformers" style="stroke: #A80036; stroke-width: 1.5;" width="149" x="456" y="8"/><ellipse cx="492.15" cy="24" fill="#ADD1B2" rx="11" ry="11" style="stroke: #A80036; stroke-width: 1.0;"/><path d="M494.4938,19.6719 L494.6656,19.75 C494.8844,19.4375 495.0875,19.3438 495.3844,19.3438 C495.6813,19.3438 495.9625,19.4844 496.1188,19.75 C496.2125,19.9063 496.2281,20.0313 496.2281,20.4688 L496.2281,21.8906 C496.2281,22.3125 496.1969,22.5 496.0875,22.6563 C495.9156,22.875 495.65,23.0156 495.3844,23.0156 C495.1656,23.0156 494.9313,22.9063 494.7906,22.7656 C494.65,22.6406 494.6188,22.5156 494.5563,22.1094 C494.4625,21.7031 494.2906,21.4844 493.8063,21.2031 C493.3375,20.9531 492.7281,20.7969 492.15,20.7969 C490.4156,20.7969 489.1656,22.1094 489.1656,23.8906 L489.1656,24.9844 C489.1656,26.6875 490.4625,27.7813 492.5094,27.7813 C493.275,27.7813 493.9625,27.6563 494.3844,27.3906 C494.5719,27.2969 494.5719,27.2969 495.025,26.8125 C495.2125,26.625 495.4156,26.5469 495.6344,26.5469 C496.1031,26.5469 496.4938,26.9375 496.4938,27.3906 C496.4938,27.7813 496.1656,28.2344 495.5875,28.6406 C494.8375,29.1875 493.6813,29.4844 492.4625,29.4844 C489.5719,29.4844 487.4625,27.5938 487.4625,25.0156 L487.4625,23.8906 C487.4625,21.1719 489.4625,19.0938 492.0875,19.0938 C492.9625,19.0938 493.5563,19.2344 494.4938,19.6719 Z "/><text fill="#000000" font-family="Courier" font-size="12" lengthAdjust="spacingAndGlyphs" textLength="70" x="510.85" y="29.2711">preformers</text><line style="stroke: #A80036; stroke-width: 1.5;" x1="457" x2="604" y1="40" y2="40"/><text fill="#000000" font-family="Courier" font-size="11" lengthAdjust="spacingAndGlyphs" textLength="137" x="462" y="54.3217">INTEGER ☆ artist_id</text><text fill="#000000" font-family="Courier" font-size="11" lengthAdjust="spacingAndGlyphs" textLength="123" x="462" y="65.308">INTEGER ☆ song_id</text><line style="stroke: #A80036; stroke-width: 1.5;" x1="457" x2="604" y1="69.9727" y2="69.9727"/><!--class Song--><rect fill="#FEFECE" filter="url(#f1x9vve8d7skbg)" height="223.7813" id="Song" style="stroke: #A80036; stroke-width: 1.5;" width="221" x="318" y="152"/><ellipse cx="410.25" cy="168" fill="#ADD1B2" rx="11" ry="11" style="stroke: #A80036; stroke-width: 1.0;"/><path d="M412.5938,163.6719 L412.7656,163.75 C412.9844,163.4375 413.1875,163.3438 413.4844,163.3438 C413.7813,163.3438 414.0625,163.4844 414.2188,163.75 C414.3125,163.9063 414.3281,164.0313 414.3281,164.4688 L414.3281,165.8906 C414.3281,166.3125 414.2969,166.5 414.1875,166.6563 C414.0156,166.875 413.75,167.0156 413.4844,167.0156 C413.2656,167.0156 413.0313,166.9063 412.8906,166.7656 C412.75,166.6406 412.7188,166.5156 412.6563,166.1094 C412.5625,165.7031 412.3906,165.4844 411.9063,165.2031 C411.4375,164.9531 410.8281,164.7969 410.25,164.7969 C408.5156,164.7969 407.2656,166.1094 407.2656,167.8906 L407.2656,168.9844 C407.2656,170.6875 408.5625,171.7813 410.6094,171.7813 C411.375,171.7813 412.0625,171.6563 412.4844,171.3906 C412.6719,171.2969 412.6719,171.2969 413.125,170.8125 C413.3125,170.625 413.5156,170.5469 413.7344,170.5469 C414.2031,170.5469 414.5938,170.9375 414.5938,171.3906 C414.5938,171.7813 414.2656,172.2344 413.6875,172.6406 C412.9375,173.1875 411.7813,173.4844 410.5625,173.4844 C407.6719,173.4844 405.5625,171.5938 405.5625,169.0156 L405.5625,167.8906 C405.5625,165.1719 407.5625,163.0938 410.1875,163.0938 C411.0625,163.0938 411.6563,163.2344 412.5938,163.6719 Z "/><text fill="#000000" font-family="Courier" font-size="12" lengthAdjust="spacingAndGlyphs" textLength="28" x="430.75" y="173.2711">Song</text><line style="stroke: #A80036; stroke-width: 1.5;" x1="319" x2="538" y1="184" y2="184"/><text fill="#000000" font-family="Courier" font-size="11" lengthAdjust="spacingAndGlyphs" textLength="130" x="338" y="198.3217">INTEGER       ★ id</text><text fill="#000000" font-family="Courier" font-size="11" lengthAdjust="spacingAndGlyphs" textLength="172" x="338" y="209.308">INTEGER       ☆ album_id</text><text fill="#000000" font-family="Courier" font-size="11" lengthAdjust="spacingAndGlyphs" textLength="146" x="338" y="220.2943">VARCHAR[250]  ⚪ genre</text><text fill="#000000" font-family="Courier" font-size="11" lengthAdjust="spacingAndGlyphs" textLength="153" x="338" y="231.2806">FLOAT         ⚪ length</text><text fill="#000000" font-family="Courier" font-size="11" lengthAdjust="spacingAndGlyphs" textLength="153" x="338" y="242.267">VARCHAR[1000] ⚪ lyrics</text><text fill="#000000" font-family="Courier" font-size="11" lengthAdjust="spacingAndGlyphs" textLength="139" x="338" y="253.2533">VARCHAR[250]  ⚪ name</text><text fill="#000000" font-family="Courier" font-size="11" lengthAdjust="spacingAndGlyphs" textLength="139" x="338" y="264.2396">VARCHAR[250]  ⚪ path</text><text fill="#000000" font-family="Courier" font-size="11" lengthAdjust="spacingAndGlyphs" textLength="195" x="338" y="275.226">VARCHAR[250]  ⚪ release_date</text><ellipse cx="329" cy="282.8906" fill="none" rx="3" ry="3" style="stroke: #038048; stroke-width: 1.0;"/><text fill="#000000" font-family="Courier" font-size="11" lengthAdjust="spacingAndGlyphs" textLength="35" x="338" y="286.2191">album</text><ellipse cx="329" cy="293.8906" fill="none" rx="3" ry="3" style="stroke: #038048; stroke-width: 1.0;"/><text fill="#000000" font-family="Courier" font-size="11" lengthAdjust="spacingAndGlyphs" textLength="49" x="338" y="297.2191">artists</text><ellipse cx="329" cy="304.8906" fill="none" rx="3" ry="3" style="stroke: #038048; stroke-width: 1.0;"/><text fill="#000000" font-family="Courier" font-size="11" lengthAdjust="spacingAndGlyphs" textLength="63" x="338" y="308.2191">playlists</text><line style="stroke: #A80036; stroke-width: 1.5;" x1="319" x2="538" y1="312.8496" y2="312.8496"/><text fill="#000000" font-family="Courier" font-size="11" lengthAdjust="spacingAndGlyphs" textLength="70" x="324" y="327.1713">add_song()</text><text fill="#000000" font-family="Courier" font-size="11" lengthAdjust="spacingAndGlyphs" textLength="84" x="324" y="338.1576">play_songs()</text><text fill="#000000" font-family="Courier" font-size="11" lengthAdjust="spacingAndGlyphs" textLength="91" x="324" y="349.1439">remove_song()</text><text fill="#000000" font-family="Courier" font-size="11" lengthAdjust="spacingAndGlyphs" textLength="77" x="324" y="360.1302">view_song()</text><text fill="#000000" font-family="Courier" font-size="11" lengthAdjust="spacingAndGlyphs" textLength="84" x="324" y="371.1166">view_songs()</text><!--class Artist--><rect fill="#FEFECE" filter="url(#f1x9vve8d7skbg)" height="124.9043" id="Artist" style="stroke: #A80036; stroke-width: 1.5;" width="179" x="439" y="682"/><ellipse cx="503.25" cy="698" fill="#ADD1B2" rx="11" ry="11" style="stroke: #A80036; stroke-width: 1.0;"/><path d="M505.5938,693.6719 L505.7656,693.75 C505.9844,693.4375 506.1875,693.3438 506.4844,693.3438 C506.7813,693.3438 507.0625,693.4844 507.2188,693.75 C507.3125,693.9063 507.3281,694.0313 507.3281,694.4688 L507.3281,695.8906 C507.3281,696.3125 507.2969,696.5 507.1875,696.6563 C507.0156,696.875 506.75,697.0156 506.4844,697.0156 C506.2656,697.0156 506.0313,696.9063 505.8906,696.7656 C505.75,696.6406 505.7188,696.5156 505.6563,696.1094 C505.5625,695.7031 505.3906,695.4844 504.9063,695.2031 C504.4375,694.9531 503.8281,694.7969 503.25,694.7969 C501.5156,694.7969 500.2656,696.1094 500.2656,697.8906 L500.2656,698.9844 C500.2656,700.6875 501.5625,701.7813 503.6094,701.7813 C504.375,701.7813 505.0625,701.6563 505.4844,701.3906 C505.6719,701.2969 505.6719,701.2969 506.125,700.8125 C506.3125,700.625 506.5156,700.5469 506.7344,700.5469 C507.2031,700.5469 507.5938,700.9375 507.5938,701.3906 C507.5938,701.7813 507.2656,702.2344 506.6875,702.6406 C505.9375,703.1875 504.7813,703.4844 503.5625,703.4844 C500.6719,703.4844 498.5625,701.5938 498.5625,699.0156 L498.5625,697.8906 C498.5625,695.1719 500.5625,693.0938 503.1875,693.0938 C504.0625,693.0938 504.6563,693.2344 505.5938,693.6719 Z "/><text fill="#000000" font-family="Courier" font-size="12" lengthAdjust="spacingAndGlyphs" textLength="42" x="523.75" y="703.2711">Artist</text><line style="stroke: #A80036; stroke-width: 1.5;" x1="440" x2="617" y1="714" y2="714"/><text fill="#000000" font-family="Courier" font-size="11" lengthAdjust="spacingAndGlyphs" textLength="144" x="459" y="728.3217">INTEGER         ★ id</text><text fill="#000000" font-family="Courier" font-size="11" lengthAdjust="spacingAndGlyphs" textLength="153" x="459" y="739.308">VARCHAR[250]    ⚪ name</text><ellipse cx="450" cy="746.9727" fill="none" rx="3" ry="3" style="stroke: #038048; stroke-width: 1.0;"/><text fill="#000000" font-family="Courier" font-size="11" lengthAdjust="spacingAndGlyphs" textLength="42" x="459" y="750.3011">albums</text><ellipse cx="450" cy="757.9727" fill="none" rx="3" ry="3" style="stroke: #038048; stroke-width: 1.0;"/><text fill="#000000" font-family="Courier" font-size="11" lengthAdjust="spacingAndGlyphs" textLength="35" x="459" y="761.3011">songs</text><line style="stroke: #A80036; stroke-width: 1.5;" x1="440" x2="617" y1="765.9453" y2="765.9453"/><text fill="#000000" font-family="Courier" font-size="11" lengthAdjust="spacingAndGlyphs" textLength="91" x="445" y="780.267">play_artist()</text><text fill="#000000" font-family="Courier" font-size="11" lengthAdjust="spacingAndGlyphs" textLength="105" x="445" y="791.2533">remove_artist()</text><text fill="#000000" font-family="Courier" font-size="11" lengthAdjust="spacingAndGlyphs" textLength="98" x="445" y="802.2396">view_artists()</text><!--class Album--><rect fill="#FEFECE" filter="url(#f1x9vve8d7skbg)" height="157.8633" id="Album" style="stroke: #A80036; stroke-width: 1.5;" width="212" x="326.5" y="450"/><ellipse cx="410.75" cy="466" fill="#ADD1B2" rx="11" ry="11" style="stroke: #A80036; stroke-width: 1.0;"/><path d="M413.0938,461.6719 L413.2656,461.75 C413.4844,461.4375 413.6875,461.3438 413.9844,461.3438 C414.2813,461.3438 414.5625,461.4844 414.7188,461.75 C414.8125,461.9063 414.8281,462.0313 414.8281,462.4688 L414.8281,463.8906 C414.8281,464.3125 414.7969,464.5 414.6875,464.6563 C414.5156,464.875 414.25,465.0156 413.9844,465.0156 C413.7656,465.0156 413.5313,464.9063 413.3906,464.7656 C413.25,464.6406 413.2188,464.5156 413.1563,464.1094 C413.0625,463.7031 412.8906,463.4844 412.4063,463.2031 C411.9375,462.9531 411.3281,462.7969 410.75,462.7969 C409.0156,462.7969 407.7656,464.1094 407.7656,465.8906 L407.7656,466.9844 C407.7656,468.6875 409.0625,469.7813 411.1094,469.7813 C411.875,469.7813 412.5625,469.6563 412.9844,469.3906 C413.1719,469.2969 413.1719,469.2969 413.625,468.8125 C413.8125,468.625 414.0156,468.5469 414.2344,468.5469 C414.7031,468.5469 415.0938,468.9375 415.0938,469.3906 C415.0938,469.7813 414.7656,470.2344 414.1875,470.6406 C413.4375,471.1875 412.2813,471.4844 411.0625,471.4844 C408.1719,471.4844 406.0625,469.5938 406.0625,467.0156 L406.0625,465.8906 C406.0625,463.1719 408.0625,461.0938 410.6875,461.0938 C411.5625,461.0938 412.1563,461.2344 413.0938,461.6719 Z "/><text fill="#000000" font-family="Courier" font-size="12" lengthAdjust="spacingAndGlyphs" textLength="35" x="431.25" y="471.2711">Album</text><line style="stroke: #A80036; stroke-width: 1.5;" x1="327.5" x2="537.5" y1="482" y2="482"/><text fill="#000000" font-family="Courier" font-size="11" lengthAdjust="spacingAndGlyphs" textLength="137" x="346.5" y="496.3217">INTEGER        ★ id</text><text fill="#000000" font-family="Courier" font-size="11" lengthAdjust="spacingAndGlyphs" textLength="186" x="346.5" y="507.308">INTEGER        ☆ artist_id</text><text fill="#000000" font-family="Courier" font-size="11" lengthAdjust="spacingAndGlyphs" textLength="146" x="346.5" y="518.2943">VARCHAR[250]   ⚪ name</text><text fill="#000000" font-family="Courier" font-size="11" lengthAdjust="spacingAndGlyphs" textLength="181" x="346.5" y="529.2806">INTEGER        ⚪ num_songs</text><ellipse cx="337.5" cy="536.9453" fill="none" rx="3" ry="3" style="stroke: #038048; stroke-width: 1.0;"/><text fill="#000000" font-family="Courier" font-size="11" lengthAdjust="spacingAndGlyphs" textLength="42" x="346.5" y="540.2738">artist</text><ellipse cx="337.5" cy="547.9453" fill="none" rx="3" ry="3" style="stroke: #038048; stroke-width: 1.0;"/><text fill="#000000" font-family="Courier" font-size="11" lengthAdjust="spacingAndGlyphs" textLength="35" x="346.5" y="551.2738">songs</text><line style="stroke: #A80036; stroke-width: 1.5;" x1="327.5" x2="537.5" y1="555.918" y2="555.918"/><text fill="#000000" font-family="Courier" font-size="11" lengthAdjust="spacingAndGlyphs" textLength="77" x="332.5" y="570.2396">add_album()</text><text fill="#000000" font-family="Courier" font-size="11" lengthAdjust="spacingAndGlyphs" textLength="84" x="332.5" y="581.226">play_album()</text><text fill="#000000" font-family="Courier" font-size="11" lengthAdjust="spacingAndGlyphs" textLength="98" x="332.5" y="592.2123">remove_album()</text><text fill="#000000" font-family="Courier" font-size="11" lengthAdjust="spacingAndGlyphs" textLength="91" x="332.5" y="603.1986">view_albums()</text><!--class Playlist--><rect fill="#FEFECE" filter="url(#f1x9vve8d7skbg)" height="168.8496" id="Playlist" style="stroke: #A80036; stroke-width: 1.5;" width="277" x="6" y="179.5"/><ellipse cx="112.25" cy="195.5" fill="#ADD1B2" rx="11" ry="11" style="stroke: #A80036; stroke-width: 1.0;"/><path d="M114.5938,191.1719 L114.7656,191.25 C114.9844,190.9375 115.1875,190.8438 115.4844,190.8438 C115.7813,190.8438 116.0625,190.9844 116.2188,191.25 C116.3125,191.4063 116.3281,191.5313 116.3281,191.9688 L116.3281,193.3906 C116.3281,193.8125 116.2969,194 116.1875,194.1563 C116.0156,194.375 115.75,194.5156 115.4844,194.5156 C115.2656,194.5156 115.0313,194.4063 114.8906,194.2656 C114.75,194.1406 114.7188,194.0156 114.6563,193.6094 C114.5625,193.2031 114.3906,192.9844 113.9063,192.7031 C113.4375,192.4531 112.8281,192.2969 112.25,192.2969 C110.5156,192.2969 109.2656,193.6094 109.2656,195.3906 L109.2656,196.4844 C109.2656,198.1875 110.5625,199.2813 112.6094,199.2813 C113.375,199.2813 114.0625,199.1563 114.4844,198.8906 C114.6719,198.7969 114.6719,198.7969 115.125,198.3125 C115.3125,198.125 115.5156,198.0469 115.7344,198.0469 C116.2031,198.0469 116.5938,198.4375 116.5938,198.8906 C116.5938,199.2813 116.2656,199.7344 115.6875,200.1406 C114.9375,200.6875 113.7813,200.9844 112.5625,200.9844 C109.6719,200.9844 107.5625,199.0938 107.5625,196.5156 L107.5625,195.3906 C107.5625,192.6719 109.5625,190.5938 112.1875,190.5938 C113.0625,190.5938 113.6563,190.7344 114.5938,191.1719 Z "/><text fill="#000000" font-family="Courier" font-size="12" lengthAdjust="spacingAndGlyphs" textLength="56" x="132.75" y="200.7711">Playlist</text><line style="stroke: #A80036; stroke-width: 1.5;" x1="7" x2="282" y1="211.5" y2="211.5"/><text fill="#000000" font-family="Courier" font-size="11" lengthAdjust="spacingAndGlyphs" textLength="193" x="26" y="225.8217">INTEGER                ★ id</text><text fill="#000000" font-family="Courier" font-size="11" lengthAdjust="spacingAndGlyphs" textLength="251" x="26" y="236.808">VARCHAR[1000]          ⚪ description</text><text fill="#000000" font-family="Courier" font-size="11" lengthAdjust="spacingAndGlyphs" textLength="202" x="26" y="247.7943">VARCHAR[250]           ⚪ name</text><ellipse cx="17" cy="255.459" fill="none" rx="3" ry="3" style="stroke: #038048; stroke-width: 1.0;"/><text fill="#000000" font-family="Courier" font-size="11" lengthAdjust="spacingAndGlyphs" textLength="35" x="26" y="258.7875">songs</text><line style="stroke: #A80036; stroke-width: 1.5;" x1="7" x2="282" y1="263.4453" y2="263.4453"/><text fill="#000000" font-family="Courier" font-size="11" lengthAdjust="spacingAndGlyphs" textLength="98" x="12" y="277.767">add_playlist()</text><text fill="#000000" font-family="Courier" font-size="11" lengthAdjust="spacingAndGlyphs" textLength="112" x="12" y="288.7533">addto_playlist()</text><text fill="#000000" font-family="Courier" font-size="11" lengthAdjust="spacingAndGlyphs" textLength="105" x="12" y="299.7396">play_playlist()</text><text fill="#000000" font-family="Courier" font-size="11" lengthAdjust="spacingAndGlyphs" textLength="154" x="12" y="310.726">remove_from_playlist()</text><text fill="#000000" font-family="Courier" font-size="11" lengthAdjust="spacingAndGlyphs" textLength="119" x="12" y="321.7123">remove_playlist()</text><text fill="#000000" font-family="Courier" font-size="11" lengthAdjust="spacingAndGlyphs" textLength="105" x="12" y="332.6986">view_playlist()</text><text fill="#000000" font-family="Courier" font-size="11" lengthAdjust="spacingAndGlyphs" textLength="112" x="12" y="343.6849">view_playlists()</text><!--link playlist_songs to Song--><path d="M304.46,88.867 C315.465,104.317 328.376,122.441 341.632,141.051 " fill="none" id="playlist_songs-Song" style="stroke: #A80036; stroke-width: 1.0;"/><polygon fill="#FFFFFF" points="349.243,151.736,349.0197,144.5284,342.2806,141.9623,342.5039,149.1699,349.243,151.736" style="stroke: #A80036; stroke-width: 1.0;"/><polygon fill="#A80036" points="296.875,78.219,298.8389,87.8701,299.776,82.2914,305.3547,83.2285,296.875,78.219" style="stroke: #A80036; stroke-width: 1.0;"/><line style="stroke: #A80036; stroke-width: 1.0;" x1="299.776" x2="304.417" y1="82.2914" y2="88.807"/><text fill="#000000" font-family="Courier" font-size="13" lengthAdjust="spacingAndGlyphs" textLength="56" x="328.5" y="121.1996">song_id</text><!--link playlist_songs to Playlist--><path d="M225.975,87.964 C220.38,94.384 215.048,101.149 210.5,108 C198.454,126.146 187.832,146.85 178.824,167.089 " fill="none" id="playlist_songs-Playlist" style="stroke: #A80036; stroke-width: 1.0;"/><polygon fill="#FFFFFF" points="173.567,179.264,179.6175,175.3409,178.3233,168.2468,172.2728,172.17,173.567,179.264" style="stroke: #A80036; stroke-width: 1.0;"/><polygon fill="#A80036" points="234.909,78.197,225.8831,82.1383,231.5344,81.8864,231.7862,87.5377,234.909,78.197" style="stroke: #A80036; stroke-width: 1.0;"/><line style="stroke: #A80036; stroke-width: 1.0;" x1="231.5344" x2="226.1345" y1="81.8864" y2="87.79"/><text fill="#000000" font-family="Courier" font-size="13" lengthAdjust="spacingAndGlyphs" textLength="88" x="211.5" y="121.1996">playlist_id</text><!--link preformers to Song--><path d="M508.997,90.168 C502.101,104.975 494.108,122.136 485.89,139.78 " fill="none" id="preformers-Song" style="stroke: #A80036; stroke-width: 1.0;"/><polygon fill="#FFFFFF" points="480.322,151.736,486.4812,147.9858,485.3885,140.858,479.2292,144.6082,480.322,151.736" style="stroke: #A80036; stroke-width: 1.0;"/><polygon fill="#A80036" points="514.562,78.219,507.1361,84.6887,512.451,82.7515,514.3882,88.0663,514.562,78.219" style="stroke: #A80036; stroke-width: 1.0;"/><line style="stroke: #A80036; stroke-width: 1.0;" x1="512.451" x2="509.0735" y1="82.7515" y2="90.003"/><text fill="#000000" font-family="Courier" font-size="13" lengthAdjust="spacingAndGlyphs" textLength="56" x="501.5" y="121.1996">song_id</text><!--link preformers to Artist--><path d="M559.875,89.915 C562.576,95.818 564.897,101.926 566.5,108 C626.62,335.756 568.056,402.443 568.5,638 C568.512,644.222 569.773,645.909 568.5,652 C567.3,657.739 565.719,663.559 563.879,669.338 " fill="none" id="preformers-Artist" style="stroke: #A80036; stroke-width: 1.0;"/><polygon fill="#FFFFFF" points="559.483,681.877,565.2426,677.538,563.4526,670.5526,557.693,674.8916,559.483,681.877" style="stroke: #A80036; stroke-width: 1.0;"/><polygon fill="#A80036" points="553.901,78.163,554.413,87.9985,556.1665,82.6203,561.5447,84.3738,553.901,78.163" style="stroke: #A80036; stroke-width: 1.0;"/><line style="stroke: #A80036; stroke-width: 1.0;" x1="556.1665" x2="559.792" y1="82.6203" y2="89.7525"/><text fill="#000000" font-family="Courier" font-size="13" lengthAdjust="spacingAndGlyphs" textLength="72" x="586.5" y="419.1996">artist_id</text><!--link Song to Album--><path d="M430.391,389.312 C430.634,405.281 430.879,421.391 431.111,436.698 " fill="none" id="Song-Album" style="stroke: #A80036; stroke-width: 1.0;"/><polygon fill="#FFFFFF" points="431.312,449.918,435.2199,443.8576,431.1287,437.9194,427.2208,443.9798,431.312,449.918" style="stroke: #A80036; stroke-width: 1.0;"/><polygon fill="#A80036" points="430.191,376.154,426.3279,385.2136,430.2668,381.1534,434.327,385.0923,430.191,376.154" style="stroke: #A80036; stroke-width: 1.0;"/><line style="stroke: #A80036; stroke-width: 1.0;" x1="430.2668" x2="430.3885" y1="381.1534" y2="389.153"/><text fill="#000000" font-family="Courier" font-size="13" lengthAdjust="spacingAndGlyphs" textLength="64" x="432.5" y="419.1996">album_id</text><!--link Album to Artist--><path d="M473.141,620.383 C480.576,636.919 488.253,653.992 495.434,669.964 " fill="none" id="Album-Artist" style="stroke: #A80036; stroke-width: 1.0;"/><polygon fill="#FFFFFF" points="500.817,681.935,502.0046,674.8224,495.8959,670.9905,494.7083,678.1031,500.817,681.935" style="stroke: #A80036; stroke-width: 1.0;"/><polygon fill="#A80036" points="467.702,608.287,467.7446,618.1358,469.7525,612.8472,475.041,614.855,467.702,608.287" style="stroke: #A80036; stroke-width: 1.0;"/><line style="stroke: #A80036; stroke-width: 1.0;" x1="469.7525" x2="473.033" y1="612.8472" y2="620.144"/><text fill="#000000" font-family="Courier" font-size="13" lengthAdjust="spacingAndGlyphs" textLength="72" x="487.5" y="651.1996">artist_id</text><!--
@startuml
skinparam defaultFontName Courier

Class playlist_songs {
    INTEGER ☆ playlist_id
    INTEGER ☆ song_id    
}

Class preformers {
    INTEGER ☆ artist_id
    INTEGER ☆ song_id  
}

Class Song {
    INTEGER       ★ id          
    INTEGER       ☆ album_id    
    VARCHAR[250]  ⚪ genre       
    FLOAT         ⚪ length      
    VARCHAR[1000] ⚪ lyrics      
    VARCHAR[250]  ⚪ name        
    VARCHAR[250]  ⚪ path        
    VARCHAR[250]  ⚪ release_date
    +             album         
    +             artists       
    +             playlists     
    add_song()                  
    play_songs()                
    remove_song()               
    view_song()                 
    view_songs()                
}

Class Artist {
    INTEGER         ★ id  
    VARCHAR[250]    ⚪ name
    +               albums
    +               songs 
    play_artist()         
    remove_artist()       
    view_artists()        
}

Class Album {
    INTEGER        ★ id       
    INTEGER        ☆ artist_id
    VARCHAR[250]   ⚪ name     
    INTEGER        ⚪ num_songs
    +              artist     
    +              songs      
    add_album()               
    play_album()              
    remove_album()            
    view_albums()             
}

Class Playlist {
    INTEGER                ★ id         
    VARCHAR[1000]          ⚪ description
    VARCHAR[250]           ⚪ name       
    +                      songs        
    add_playlist()                      
    addto_playlist()                    
    play_playlist()                     
    remove_from_playlist()              
    remove_playlist()                   
    view_playlist()                     
    view_playlists()                    
}

playlist_songs <- -o Song: song_id

playlist_songs <- -o Playlist: playlist_id

preformers <- -o Song: song_id

preformers <- -o Artist: artist_id

Song <- -o Album: album_id

Album <- -o Artist: artist_id
@enduml

PlantUML version 1.2018.13(Mon Nov 26 17:11:51 UTC 2018)
(GPL source distribution)
Java Runtime: Java(TM) SE Runtime Environment
JVM: Java HotSpot(TM) 64-Bit Server VM
Java Version: 1.7.0_25-b15
Operating System: Linux
Default Encoding: UTF-8
Language: en
Country: US
--></g></svg>